<svg width="98" height="32" viewBox="0 0 98 32" fill="none" xmlns="http://www.w3.org/2000/svg">
<path d="M7.24874 28.5613V8.05417H2.757C1.82768 8.05417 1.14617 7.77537 0.681506 7.21778C0.216843 6.66018 0 5.97867 0 5.20423C0 4.46077 0.247821 3.81025 0.743462 3.25265C1.2391 2.69505 1.88963 2.41626 2.757 2.41626H17.7811C18.6175 2.41626 19.299 2.69505 19.7946 3.25265C20.2903 3.81025 20.5381 4.46077 20.5381 5.20423C20.5381 6.00965 20.3212 6.66018 19.8566 7.21778C19.3919 7.77537 18.7104 8.05417 17.7811 8.05417H13.3514V28.5613C13.3514 29.5836 13.0725 30.358 12.515 30.9156C11.9573 31.4732 11.2139 31.7519 10.2536 31.7519C9.35522 31.7519 8.61176 31.4732 8.05416 30.9156C7.52754 30.327 7.24874 29.5526 7.24874 28.5613Z" fill="#311A8C"/>
<path d="M36.9254 13.3515V27.8799C36.9254 29.0261 36.8016 29.8315 36.5847 30.3272C36.151 31.2565 35.3146 31.7212 34.0445 31.7212C33.239 31.7212 32.6196 31.5044 32.2168 31.1017C31.8141 30.699 31.5043 30.0484 31.2875 29.1811C30.513 30.0794 29.6457 30.7609 28.7164 31.2565C27.787 31.7212 26.7648 31.969 25.6496 31.969C22.8926 31.969 20.6002 30.9158 18.7416 28.7784C16.883 26.6409 15.9536 23.9148 15.9536 20.6312C15.9536 17.4096 16.883 14.7146 18.7725 12.5461C20.6622 10.3777 22.9545 9.29346 25.6806 9.29346C26.8577 9.29346 27.911 9.5103 28.8712 9.94398C29.8316 10.3777 30.637 11.0591 31.2875 11.9885C31.3805 11.2451 31.6902 10.6564 32.2168 10.2228C32.7434 9.75812 33.363 9.54128 34.0754 9.54128C35.3146 9.54128 36.151 9.97496 36.5537 10.8424C36.8016 11.338 36.9254 12.1743 36.9254 13.3515ZM21.8084 20.6312C21.8084 22.2421 22.1801 23.5741 22.9236 24.6893C23.7909 25.9593 24.9681 26.6099 26.486 26.6099C27.9419 26.6099 29.0571 25.9904 29.9245 24.7202C30.6989 23.5741 31.0707 22.2111 31.0707 20.6312C31.0707 19.0824 30.6989 17.7504 29.9555 16.6352C29.0881 15.334 27.9419 14.6836 26.486 14.6836C25.03 14.6836 23.8529 15.334 22.9855 16.6042C22.1801 17.7193 21.8084 19.0824 21.8084 20.6312Z" fill="#311A8C"/>
<path d="M39.8784 28.4684V3.28362C39.8784 2.29234 40.1572 1.5179 40.6838 0.898349C41.2414 0.309775 41.9229 0 42.8213 0C43.6886 0 44.4011 0.309775 44.9587 0.898349C45.5163 1.48692 45.7641 2.29234 45.7641 3.28362V11.3068C47.282 9.9438 49.1407 9.26229 51.3091 9.26229C54.3139 9.26229 56.6682 10.4704 58.403 12.8867C59.9829 15.0861 60.7573 17.7501 60.7573 20.8479C60.7573 23.7598 59.8898 26.2999 58.1551 28.4993C56.2965 30.8227 53.9731 31.9688 51.1232 31.9688C50.008 31.9688 48.9548 31.752 47.9635 31.2873C46.9722 30.8227 46.2287 30.1721 45.7022 29.2738C45.4854 30.0792 45.1446 30.6988 44.6799 31.1015C44.2152 31.5042 43.5648 31.721 42.7593 31.721C41.8919 31.721 41.1795 31.4112 40.6218 30.8227C40.1262 30.234 39.8784 29.4286 39.8784 28.4684ZM45.7331 20.4451C45.7331 22.0869 46.0739 23.45 46.7864 24.5652C47.6228 25.8972 48.7999 26.5787 50.2869 26.5787C51.7428 26.5787 52.8579 25.9282 53.7254 24.6581C54.4998 23.5119 54.8716 22.1799 54.8716 20.6001C54.8716 19.0202 54.4998 17.7191 53.7564 16.6039C52.8889 15.3029 51.7428 14.6523 50.2869 14.6523C48.8309 14.6523 47.7157 15.21 46.9103 16.3562C46.1358 17.5333 45.7331 18.8963 45.7331 20.4451Z" fill="#311A8C"/>
<path d="M75.2793 12.9488C75.2793 13.6303 75.0624 14.2809 74.6597 14.9004C74.257 15.52 73.7304 15.8298 73.0798 15.8298C72.6771 15.8298 71.7478 15.5819 70.3538 15.0863C69.5794 14.8075 68.9289 14.6836 68.4332 14.6836C66.8533 14.6836 65.6142 15.3031 64.685 16.5112C63.8795 17.5954 63.4459 18.9895 63.4459 20.6312C63.4459 22.2421 63.8795 23.605 64.7159 24.7202C65.6762 25.9594 66.9154 26.6099 68.4332 26.6099C68.9289 26.6099 69.5484 26.486 70.3228 26.2072C71.0973 25.9593 71.9027 25.6806 72.7392 25.3708C73.4516 25.3708 74.0402 25.6187 74.5358 26.1143C75.0314 26.6099 75.2793 27.1985 75.2793 27.9109C75.2793 29.243 74.35 30.2963 72.4913 31.1017C71.0663 31.6902 69.6103 32 68.0925 32C64.9948 32 62.4545 30.9158 60.503 28.7164C58.5514 26.517 57.5601 23.8219 57.5601 20.6622C57.5601 17.5954 58.5514 14.9313 60.5339 12.6701C62.5165 10.4087 65.0257 9.29346 68.0925 9.29346C69.7653 9.29346 71.2522 9.54128 72.5532 10.0369C74.3809 10.6874 75.2793 11.6787 75.2793 12.9488Z" fill="url(#paint0_linear_5194_2050)"/>
<path d="M97.9239 13.3515V27.8799C97.9239 29.0261 97.8 29.8315 97.5831 30.3272C97.1494 31.2565 96.3131 31.7212 95.043 31.7212C94.2376 31.7212 93.618 31.5044 93.2153 31.1017C92.8126 30.699 92.5028 30.0484 92.286 29.1811C91.5116 30.0794 90.6441 30.7609 89.7148 31.2565C88.7855 31.7212 87.7632 31.969 86.648 31.969C83.891 31.969 81.5987 30.9158 79.7401 28.7784C77.8814 26.6409 76.9521 23.9148 76.9521 20.6312C76.9521 17.4096 77.8814 14.7146 79.7711 12.5461C81.6607 10.3777 83.953 9.29346 86.679 9.29346C87.8562 9.29346 88.9094 9.5103 89.8698 9.94398C90.83 10.3777 91.6355 11.0591 92.286 11.9885C92.3789 11.2451 92.6887 10.6564 93.2153 10.2228C93.7419 9.75812 94.3615 9.54128 95.074 9.54128C96.3131 9.54128 97.1494 9.97496 97.5522 10.8424C97.8 11.338 97.9239 12.1743 97.9239 13.3515ZM82.8068 20.6312C82.8068 22.2421 83.1785 23.5741 83.922 24.6893C84.7894 25.9593 85.9665 26.6099 87.4844 26.6099C88.9404 26.6099 90.0556 25.9904 90.923 24.7202C91.6974 23.5741 92.0691 22.2111 92.0691 20.6312C92.0691 19.0824 91.6974 17.7504 90.9539 16.6352C90.0866 15.334 88.9404 14.6836 87.4844 14.6836C86.0286 14.6836 84.8514 15.334 83.984 16.6042C83.1785 17.7193 82.8068 19.0824 82.8068 20.6312Z" fill="url(#paint1_linear_5194_2050)"/>
<defs>
<linearGradient id="paint0_linear_5194_2050" x1="66.4197" y1="9.29346" x2="66.4197" y2="32" gradientUnits="userSpaceOnUse">
<stop stop-color="#DD3B9C"/>
<stop offset="0.901042" stop-color="#5105CF"/>
</linearGradient>
<linearGradient id="paint1_linear_5194_2050" x1="87.438" y1="9.29346" x2="87.438" y2="31.969" gradientUnits="userSpaceOnUse">
<stop stop-color="#DD3B9C"/>
<stop offset="0.901042" stop-color="#5105CF"/>
</linearGradient>
</defs>
</svg>
