<svg width="30" height="30" viewBox="0 0 30 30" fill="none" xmlns="http://www.w3.org/2000/svg">
<path d="M22.0714 5H7.92857C5.76 5 4 6.76 4 8.92857V18.3571C4 20.5257 5.76 22.2857 7.92857 22.2857H11.0714C11.315 22.2857 11.5507 22.4036 11.7 22.6L13.1143 24.4857C13.5543 25.075 14.2614 25.4286 15 25.4286C15.7386 25.4286 16.4457 25.075 16.8857 24.4857L18.3 22.6C18.4493 22.4036 18.685 22.2857 18.9286 22.2857H22.0714C24.24 22.2857 26 20.5257 26 18.3571V8.92857C26 6.76 24.24 5 22.0714 5ZM24.4286 18.3571C24.4286 19.6536 23.3679 20.7143 22.0714 20.7143H18.9286C18.19 20.7143 17.4829 21.0679 17.0429 21.6571L15.6286 23.5429C15.33 23.9357 14.67 23.9357 14.3714 23.5429L12.9571 21.6571C12.5171 21.0679 11.81 20.7143 11.0714 20.7143H7.92857C6.63214 20.7143 5.57143 19.6536 5.57143 18.3571V8.92857C5.57143 7.63214 6.63214 6.57143 7.92857 6.57143H22.0714C23.3679 6.57143 24.4286 7.63214 24.4286 8.92857V18.3571Z" fill="url(#paint0_linear_5064_2073)"/>
<path d="M14.3088 8.15744C13.2716 8.04946 12.3476 8.55988 11.8574 9.35496C11.3671 8.55988 10.4431 8.04946 9.40592 8.15744C8.09535 8.29486 7.14307 9.4433 7.14307 10.739C7.14307 11.3672 7.37878 11.9659 7.8125 12.4273L10.6411 15.4702C10.9522 15.8137 11.3954 16.0002 11.8574 16.0002C12.3194 16.0002 12.7625 15.8137 13.0736 15.4702L15.9022 12.4273C16.3359 11.9758 16.5716 11.3672 16.5716 10.739C16.5716 9.45311 15.6099 8.29486 14.3088 8.15744Z" fill="url(#paint1_linear_5064_2073)"/>
<path d="M21.0936 12.8684C20.3253 12.7821 19.6409 13.1904 19.2777 13.8264C18.9145 13.1904 18.2301 12.7821 17.4618 12.8684C16.491 12.9784 15.7856 13.8971 15.7856 14.9337C15.7856 15.4362 15.9602 15.9152 16.2815 16.2843L18.3768 18.7186C18.6072 18.9934 18.9355 19.1426 19.2777 19.1426C19.6199 19.1426 19.9482 18.9934 20.1787 18.7186L22.2739 16.2843C22.5952 15.9231 22.7698 15.4362 22.7698 14.9337C22.7698 13.905 22.0574 12.9784 21.0936 12.8684Z" fill="url(#paint2_linear_5064_2073)"/>
<defs>
<linearGradient id="paint0_linear_5064_2073" x1="15" y1="5" x2="15" y2="25.4286" gradientUnits="userSpaceOnUse">
<stop stop-color="#7042E6"/>
<stop offset="1" stop-color="#D95BC5"/>
</linearGradient>
<linearGradient id="paint1_linear_5064_2073" x1="11.8574" y1="8.14307" x2="11.8574" y2="16.0002" gradientUnits="userSpaceOnUse">
<stop stop-color="#7744E2"/>
<stop offset="1" stop-color="#D55AC6"/>
</linearGradient>
<linearGradient id="paint2_linear_5064_2073" x1="19.2777" y1="12.8569" x2="19.2777" y2="19.1426" gradientUnits="userSpaceOnUse">
<stop stop-color="#7744E2"/>
<stop offset="1" stop-color="#D55AC6"/>
</linearGradient>
</defs>
</svg>
