<svg width="30" height="30" viewBox="0 0 30 30" fill="none" xmlns="http://www.w3.org/2000/svg">
<path d="M13.299 24.1784C14.2086 24.1784 15.8279 21.1708 16.0592 16.2007H10.5308C10.7622 21.1708 12.3816 24.1784 13.299 24.1784Z" fill="url(#paint0_linear_5064_2118)"/>
<path d="M10.5548 25.0001C9.10285 23.1014 8.28911 19.7109 8.13758 16.2007H3C3.23763 18.2538 4.08405 20.1888 5.43037 21.7569C6.7767 23.325 8.56137 24.4545 10.5548 25.0001Z" fill="url(#paint1_linear_5064_2118)"/>
<path d="M16.0356 5C17.4874 6.8908 18.3012 10.2813 18.4527 13.8073H23.5985C23.3607 11.7522 22.5134 9.81524 21.1656 8.24566C19.8178 6.67608 18.0312 5.54571 16.0356 5Z" fill="url(#paint2_linear_5064_2118)"/>
<path d="M13.299 5.82959C12.3816 5.82959 10.7622 8.82919 10.5308 13.8073H16.0592C15.8279 8.82919 14.2086 5.82959 13.299 5.82959Z" fill="url(#paint3_linear_5064_2118)"/>
<path d="M10.5548 5.00781C8.56138 5.55341 6.77672 6.68289 5.43039 8.251C4.08407 9.81912 3.23765 11.7541 3 13.8072H8.13758C8.28911 10.2891 9.10285 6.9066 10.5548 5.00781Z" fill="url(#paint4_linear_5064_2118)"/>
<path d="M25.6061 16H18.8859C18.8859 16 17 16.2029 17 18.1127C17 20.0225 18.4443 19.8554 18.7427 19.8554C19.0411 19.8554 20.3541 19.7958 20.3541 18.3753C20.3541 16.9549 18.3249 16.7042 18.1817 18.1485C18.1817 18.6976 18.9217 18.8528 18.9217 18.1485C18.9217 17.4443 19.5902 17.7308 19.6021 18.1008C19.6141 18.4708 19.5544 19.1034 18.7546 19.1154C17.9549 19.1273 17.7042 18.5663 17.7042 18.1247C17.7042 17.683 17.943 16.7042 19.256 16.7042C20.569 16.7042 20.8793 17.4562 20.8554 17.874C20.9748 17.8859 23.5172 17.8859 23.6366 17.874C23.6127 17.4801 23.9231 16.7281 25.2361 16.7281C26.5491 16.7281 26.7878 17.7069 26.7878 18.1485C26.7878 18.5902 26.5371 19.1512 25.7374 19.1393C24.9377 19.1273 24.878 18.4947 24.8899 18.1247C24.9018 17.7546 25.5703 17.4562 25.5703 18.1724C25.5703 18.8767 26.3103 18.7215 26.3103 18.1724C26.1671 16.7042 24.1379 16.9549 24.1379 18.3753C24.1379 19.7958 25.4509 19.8554 25.7493 19.8554C26.0477 19.8554 27.492 20.0225 27.492 18.1127C27.492 16.2029 25.6061 16 25.6061 16Z" fill="#7243E5"/>
<path d="M23.6009 18.5186H22.2879H22.2043H20.8913C20.8913 18.5186 20.8078 20.118 19.7812 20.4284C19.7812 21.0968 19.7812 24.988 19.7812 24.988H20.6526V21.1565C20.6526 21.1565 20.8675 20.5955 21.0942 21.1684C21.0942 21.7533 21.0942 24.988 21.0942 24.988H21.9895V21.1445C21.9895 21.1445 22.085 20.9297 22.2043 20.9416H22.2879C22.4192 20.9297 22.5027 21.1445 22.5027 21.1445V25H23.398C23.398 25 23.398 21.7652 23.398 21.1804C23.6247 20.6074 23.8396 21.1684 23.8396 21.1684V25H24.711C24.711 25 24.711 21.0968 24.711 20.4403C23.6844 20.1061 23.6009 18.5186 23.6009 18.5186Z" fill="#7243E5"/>
<defs>
<linearGradient id="paint0_linear_5064_2118" x1="13.295" y1="16.2007" x2="13.295" y2="24.1784" gradientUnits="userSpaceOnUse">
<stop stop-color="#7643E3"/>
<stop offset="1" stop-color="#D85BC5"/>
</linearGradient>
<linearGradient id="paint1_linear_5064_2118" x1="6.77742" y1="16.2007" x2="6.77742" y2="25.0001" gradientUnits="userSpaceOnUse">
<stop stop-color="#7643E3"/>
<stop offset="1" stop-color="#D85BC5"/>
</linearGradient>
<linearGradient id="paint2_linear_5064_2118" x1="19.8171" y1="5" x2="19.8171" y2="13.8073" gradientUnits="userSpaceOnUse">
<stop stop-color="#7643E3"/>
<stop offset="1" stop-color="#D85BC5"/>
</linearGradient>
<linearGradient id="paint3_linear_5064_2118" x1="13.295" y1="5.82959" x2="13.295" y2="13.8073" gradientUnits="userSpaceOnUse">
<stop stop-color="#7643E3"/>
<stop offset="1" stop-color="#D85BC5"/>
</linearGradient>
<linearGradient id="paint4_linear_5064_2118" x1="6.77742" y1="5.00781" x2="6.77742" y2="13.8072" gradientUnits="userSpaceOnUse">
<stop stop-color="#7643E3"/>
<stop offset="1" stop-color="#D85BC5"/>
</linearGradient>
</defs>
</svg>
