<svg width="24" height="24" viewBox="0 0 24 24" fill="none" xmlns="http://www.w3.org/2000/svg">
<path fill-rule="evenodd" clip-rule="evenodd" d="M19.7778 8.44444C20.7596 8.44444 21.5556 9.24038 21.5556 10.2222L21.5344 10.415L19.7742 18.3359C19.7156 19.2648 18.9437 20 18 20H3.77778C2.79594 20 2 19.2041 2 18.2222V5.77778C2 4.79594 2.79594 4 3.77778 4H9.11111C10.1067 4 10.7404 4.42262 11.3769 5.22565C11.4193 5.27923 11.609 5.52523 11.6555 5.58295C11.7953 5.75622 11.8238 5.77754 11.7794 5.77778H18C18.9818 5.77778 19.7778 6.57372 19.7778 7.55556V8.44444ZM18 8.44444V7.55556L11.773 7.55554C11.1347 7.55212 10.7188 7.25325 10.2719 6.69915C10.2102 6.62267 10.0141 6.36836 9.98364 6.32992C9.65069 5.90984 9.45266 5.77778 9.11111 5.77778H3.77778V10.1257L3.80367 10.0092C4.05351 8.99685 4.51857 8.44444 5.55556 8.44444H18ZM3.79946 18.2222H18L18.0212 18.0294L19.7561 10.2222H5.58783C5.57394 10.2663 5.55548 10.33 5.53439 10.415L3.79946 18.2222Z" fill="#1ABDFF"/>
</svg>
